<svg width="312" height="191" viewBox="0 0 312 191" fill="none" xmlns="http://www.w3.org/2000/svg">
<path d="M154.041 190.721C152.985 190.721 151.999 190.439 151.084 189.947L141.721 184.385C140.313 183.61 141.017 183.329 141.439 183.188C143.34 182.554 143.692 182.413 145.663 181.287C145.874 181.146 146.156 181.217 146.367 181.357L153.548 185.652C153.83 185.793 154.182 185.793 154.393 185.652L182.484 169.389C182.765 169.248 182.906 168.967 182.906 168.615V136.159C182.906 135.807 182.765 135.525 182.484 135.384L154.393 119.192C154.112 119.051 153.76 119.051 153.548 119.192L125.458 135.384C125.176 135.525 125.035 135.877 125.035 136.159V168.615C125.035 168.896 125.176 169.248 125.458 169.389L133.132 173.824C137.285 175.936 139.89 173.472 139.89 171.008V138.975C139.89 138.553 140.242 138.13 140.735 138.13H144.326C144.748 138.13 145.17 138.482 145.17 138.975V171.008C145.17 176.57 142.143 179.809 136.863 179.809C135.244 179.809 133.976 179.809 130.386 178.048L122.994 173.824C121.163 172.768 120.037 170.797 120.037 168.685V136.229C120.037 134.117 121.163 132.146 122.994 131.09L151.084 114.827C152.844 113.841 155.238 113.841 156.998 114.827L185.089 131.09C186.919 132.146 188.046 134.117 188.046 136.229V168.685C188.046 170.797 186.919 172.768 185.089 173.824L156.998 190.087C156.083 190.51 155.027 190.721 154.041 190.721ZM162.701 168.403C150.38 168.403 147.846 162.771 147.846 157.984C147.846 157.561 148.198 157.139 148.691 157.139H152.351C152.774 157.139 153.126 157.42 153.126 157.843C153.689 161.574 155.308 163.405 162.771 163.405C168.685 163.405 171.219 162.067 171.219 158.899C171.219 157.068 170.515 155.731 161.293 154.816C153.619 154.041 148.831 152.351 148.831 146.226C148.831 140.524 153.619 137.144 161.645 137.144C170.656 137.144 175.092 140.242 175.655 147.001C175.655 147.212 175.584 147.423 175.444 147.634C175.303 147.775 175.092 147.916 174.88 147.916H171.219C170.867 147.916 170.515 147.634 170.445 147.282C169.6 143.41 167.418 142.143 161.645 142.143C155.168 142.143 154.393 144.396 154.393 146.086C154.393 148.127 155.308 148.761 164.038 149.887C172.698 151.014 176.781 152.633 176.781 158.688C176.711 164.883 171.642 168.403 162.701 168.403Z" fill="#539E43"/>
<path d="M66.8826 63.7849C66.8826 62.5176 66.1786 61.3208 65.0521 60.6871L35.2014 43.5089C34.7085 43.2273 34.1453 43.0865 33.5821 43.0161H33.3005C32.7373 43.0161 32.174 43.2273 31.6812 43.5089L1.83047 60.6871C0.704027 61.3208 0 62.5176 0 63.7849L0.0704027 109.969C0.0704027 110.603 0.422416 111.236 0.985638 111.518C1.54886 111.87 2.25289 111.87 2.74571 111.518L20.4872 101.38C21.6136 100.746 22.3177 99.5494 22.3177 98.2822V76.6686C22.3177 75.4013 23.0217 74.2045 24.1481 73.5708L31.6812 69.2059C32.2444 68.8538 32.8781 68.713 33.5117 68.713C34.1453 68.713 34.7789 68.8538 35.2718 69.2059L42.8049 73.5708C43.9313 74.2045 44.6353 75.4013 44.6353 76.6686V98.2822C44.6353 99.5494 45.3394 100.746 46.4658 101.38L64.2073 111.518C64.7705 111.87 65.4745 111.87 66.0377 111.518C66.601 111.236 66.953 110.603 66.953 109.969L66.8826 63.7849Z" fill="#333333"/>
<path d="M210.363 0.211208C209.8 -0.0704027 209.096 -0.0704027 208.603 0.211208C208.04 0.563222 207.688 1.12644 207.688 1.76007V47.5218C207.688 47.9443 207.477 48.3667 207.054 48.6483C206.632 48.8595 206.21 48.8595 205.787 48.6483L198.324 44.3537C197.198 43.7201 195.86 43.7201 194.734 44.3537L164.883 61.6024C163.757 62.236 163.053 63.4329 163.053 64.7001V99.127C163.053 100.394 163.757 101.591 164.883 102.225L194.734 119.473C195.86 120.107 197.198 120.107 198.324 119.473L228.175 102.225C229.302 101.591 230.006 100.394 230.006 99.127V13.3061C230.006 11.9685 229.302 10.7716 228.175 10.138L210.363 0.211208ZM207.618 87.7922C207.618 88.1442 207.477 88.4258 207.195 88.5666L196.987 94.4805C196.705 94.6213 196.353 94.6213 196.072 94.4805L185.863 88.5666C185.582 88.4258 185.441 88.0738 185.441 87.7922V75.9645C185.441 75.6125 185.582 75.3309 185.863 75.1901L196.072 69.2763C196.353 69.1355 196.705 69.1355 196.987 69.2763L207.195 75.1901C207.477 75.3309 207.618 75.6829 207.618 75.9645V87.7922Z" fill="#333333"/>
<path d="M309.702 75.6829C310.828 75.0493 311.462 73.8524 311.462 72.5852V64.2073C311.462 62.94 310.758 61.7432 309.702 61.1095L280.062 43.9313C278.936 43.2976 277.598 43.2976 276.472 43.9313L246.621 61.1799C245.494 61.8136 244.79 63.0104 244.79 64.2777V98.7046C244.79 99.9718 245.494 101.169 246.621 101.802L276.26 118.699C277.387 119.333 278.724 119.333 279.78 118.699L297.733 108.702C298.296 108.42 298.648 107.787 298.648 107.153C298.648 106.519 298.296 105.886 297.733 105.604L267.742 88.3554C267.178 88.0034 266.826 87.4402 266.826 86.8065V76.0349C266.826 75.4013 267.178 74.7677 267.742 74.4861L277.105 69.1354C277.668 68.7834 278.372 68.7834 278.936 69.1354L288.299 74.4861C288.862 74.8381 289.214 75.4013 289.214 76.0349V84.4832C289.214 85.1169 289.566 85.7505 290.13 86.0321C290.693 86.3841 291.397 86.3841 291.96 86.0321L309.702 75.6829Z" fill="#333333"/>
<path d="M277.809 74.0636C278.02 73.9228 278.302 73.9228 278.513 74.0636L284.216 77.3725C284.427 77.5133 284.568 77.7246 284.568 78.0062V84.624C284.568 84.9056 284.427 85.1168 284.216 85.2576L278.513 88.5666C278.302 88.7074 278.02 88.7074 277.809 88.5666L272.106 85.2576C271.895 85.1168 271.754 84.9056 271.754 84.624V78.0062C271.754 77.7246 271.895 77.5133 272.106 77.3725L277.809 74.0636Z" fill="#539E43"/>
<path d="M116.798 44.0721C115.672 43.4385 114.334 43.4385 113.207 44.0721L83.5679 61.1799C82.4415 61.8136 81.8079 63.0104 81.8079 64.2777V98.5638C81.8079 99.831 82.5119 101.028 83.5679 101.662L113.207 118.769C114.334 119.403 115.672 119.403 116.798 118.769L146.438 101.662C147.564 101.028 148.198 99.831 148.198 98.5638V64.2777C148.198 63.0104 147.494 61.8136 146.438 61.1799L116.798 44.0721Z" fill="url(#paint0_linear_101_33)"/>
<mask id="mask0_101_33" style="mask-type:luminance" maskUnits="userSpaceOnUse" x="81" y="43" width="68" height="77">
<path d="M116.798 44.0721C115.672 43.4385 114.334 43.4385 113.207 44.0721L83.5679 61.1799C82.4415 61.8136 81.8079 63.0104 81.8079 64.2777V98.5638C81.8079 99.831 82.5119 101.028 83.5679 101.662L113.207 118.769C114.334 119.403 115.672 119.403 116.798 118.769L146.438 101.662C147.564 101.028 148.198 99.831 148.198 98.5638V64.2777C148.198 63.0104 147.494 61.8136 146.438 61.1799L116.798 44.0721Z" fill="white"/>
</mask>
<g mask="url(#mask0_101_33)">
<path d="M146.508 61.1799L116.728 44.072C116.446 43.9312 116.094 43.7904 115.812 43.72L82.4414 100.887C82.723 101.239 83.075 101.521 83.427 101.732L113.207 118.84C114.052 119.333 115.038 119.473 115.953 119.192L147.282 61.8839C147.071 61.6023 146.789 61.3911 146.508 61.1799Z" fill="url(#paint1_linear_101_33)"/>
</g>
<mask id="mask1_101_33" style="mask-type:luminance" maskUnits="userSpaceOnUse" x="81" y="43" width="68" height="77">
<path d="M116.798 44.0721C115.672 43.4385 114.334 43.4385 113.207 44.0721L83.5679 61.1799C82.4415 61.8136 81.8079 63.0104 81.8079 64.2777V98.5638C81.8079 99.831 82.5119 101.028 83.5679 101.662L113.207 118.769C114.334 119.403 115.672 119.403 116.798 118.769L146.438 101.662C147.564 101.028 148.198 99.831 148.198 98.5638V64.2777C148.198 63.0104 147.494 61.8136 146.438 61.1799L116.798 44.0721Z" fill="white"/>
</mask>
<g mask="url(#mask1_101_33)">
<path fill-rule="evenodd" clip-rule="evenodd" d="M146.579 101.661C147.423 101.169 148.057 100.324 148.339 99.4086L115.672 43.6496C114.827 43.5088 113.912 43.5792 113.137 44.0721L83.5681 61.1095L115.461 119.262C115.883 119.192 116.376 119.051 116.798 118.84L146.579 101.661Z" fill="url(#paint2_linear_101_33)"/>
<path fill-rule="evenodd" clip-rule="evenodd" d="M146.579 101.661L116.869 118.769C116.446 118.981 116.024 119.121 115.531 119.192L116.094 120.248L149.043 101.169V100.746L148.198 99.3382C148.057 100.324 147.423 101.169 146.579 101.661Z" fill="url(#paint3_linear_101_33)"/>
<path fill-rule="evenodd" clip-rule="evenodd" d="M146.579 101.661L116.869 118.769C116.446 118.981 116.024 119.121 115.531 119.192L116.094 120.248L149.043 101.169V100.746L148.198 99.3382C148.057 100.324 147.423 101.169 146.579 101.661Z" fill="url(#paint4_linear_101_33)"/>
</g>
<defs>
<linearGradient id="paint0_linear_101_33" x1="4608.82" y1="1366.44" x2="1359.92" y2="6471.21" gradientUnits="userSpaceOnUse">
<stop stop-color="#41873F"/>
<stop offset="0.3288" stop-color="#418B3D"/>
<stop offset="0.6352" stop-color="#419637"/>
<stop offset="0.9319" stop-color="#3FA92D"/>
<stop offset="1" stop-color="#3FAE2A"/>
</linearGradient>
<linearGradient id="paint1_linear_101_33" x1="2888.53" y1="4215.32" x2="11024.9" y2="-205.143" gradientUnits="userSpaceOnUse">
<stop offset="0.1376" stop-color="#41873F"/>
<stop offset="0.4032" stop-color="#54A044"/>
<stop offset="0.7136" stop-color="#66B848"/>
<stop offset="0.9081" stop-color="#6CC04A"/>
</linearGradient>
<linearGradient id="paint2_linear_101_33" x1="-200.697" y1="3827.2" x2="6657.72" y2="3827.2" gradientUnits="userSpaceOnUse">
<stop offset="0.0919165" stop-color="#6CC04A"/>
<stop offset="0.2864" stop-color="#66B848"/>
<stop offset="0.5968" stop-color="#54A044"/>
<stop offset="0.8624" stop-color="#41873F"/>
</linearGradient>
<linearGradient id="paint3_linear_101_33" x1="-3365.02" y1="1150.58" x2="3493.4" y2="1150.58" gradientUnits="userSpaceOnUse">
<stop offset="0.0919165" stop-color="#6CC04A"/>
<stop offset="0.2864" stop-color="#66B848"/>
<stop offset="0.5968" stop-color="#54A044"/>
<stop offset="0.8624" stop-color="#41873F"/>
</linearGradient>
<linearGradient id="paint4_linear_101_33" x1="4492.6" y1="-4314.04" x2="2755.09" y2="4790.46" gradientUnits="userSpaceOnUse">
<stop stop-color="#41873F"/>
<stop offset="0.3288" stop-color="#418B3D"/>
<stop offset="0.6352" stop-color="#419637"/>
<stop offset="0.9319" stop-color="#3FA92D"/>
<stop offset="1" stop-color="#3FAE2A"/>
</linearGradient>
</defs>
</svg>
