<svg width="312" height="311" viewBox="0 0 312 311" fill="none" xmlns="http://www.w3.org/2000/svg">
<path d="M300.765 33.1708L236.631 2.29429C233.01 0.54801 228.934 -0.0282626 224.97 0.645354C221.006 1.31897 217.35 3.20911 214.509 6.05374L4.56854 197.452C2.02135 199.764 0.496612 202.992 0.32974 206.428C0.162869 209.863 1.36753 213.224 3.67872 215.771C3.95679 216.072 4.23486 216.361 4.53517 216.628L21.6752 232.199C23.9149 234.238 26.7978 235.427 29.8232 235.562C32.8487 235.696 35.8255 234.766 38.2368 232.934L291.11 41.1791C293.02 39.7297 295.297 38.8422 297.684 38.6166C300.071 38.3909 302.474 38.8361 304.621 39.9019C306.769 40.9677 308.577 42.6118 309.841 44.6492C311.105 46.6867 311.775 49.0365 311.776 51.4342V50.6889C311.776 47.0285 310.742 43.4424 308.794 40.3434C306.846 37.2443 304.063 34.7581 300.765 33.1708Z" fill="#0065A9"/>
<path d="M300.765 277.202L236.631 308.089C233.009 309.831 228.934 310.404 224.972 309.731C221.009 309.057 217.353 307.17 214.509 304.33L4.56854 112.92C2.02135 110.609 0.496612 107.38 0.32974 103.945C0.162869 100.51 1.36753 97.1485 3.67872 94.6012C3.95679 94.3009 4.23486 94.0117 4.53517 93.7448L21.6752 78.1731C23.9171 76.1261 26.8067 74.9313 29.8396 74.7971C32.8725 74.6629 35.8562 75.5979 38.2702 77.439L291.11 269.193C293.02 270.643 295.297 271.53 297.684 271.756C300.071 271.982 302.474 271.536 304.621 270.471C306.769 269.405 308.577 267.761 309.841 265.723C311.105 263.686 311.775 261.336 311.776 258.938V259.739C311.764 263.39 310.725 266.964 308.778 270.052C306.831 273.14 304.054 275.617 300.765 277.202Z" fill="#007ACC"/>
<path d="M236.631 308.089C233.008 309.831 228.934 310.404 224.971 309.731C221.008 309.058 217.352 307.17 214.508 304.33C216.105 305.906 218.132 306.976 220.335 307.406C222.538 307.835 224.818 307.605 226.89 306.744C228.963 305.883 230.735 304.429 231.985 302.565C233.235 300.702 233.907 298.51 233.917 296.266V14.1067C233.919 11.852 233.251 9.64749 231.999 7.7724C230.747 5.89732 228.967 4.43605 226.884 3.57368C224.8 2.71132 222.508 2.48667 220.297 2.9282C218.086 3.36972 216.056 4.45755 214.463 6.05389C217.305 3.21029 220.961 1.32003 224.924 0.644542C228.887 -0.0309465 232.963 0.54171 236.586 2.28331L300.708 33.1153C304.017 34.6947 306.812 37.1775 308.77 40.2772C310.728 43.3769 311.77 46.9671 311.775 50.6335V259.739C311.776 263.403 310.742 266.992 308.792 270.093C306.842 273.195 304.055 275.682 300.753 277.269L236.631 308.089Z" fill="#1F9CF0"/>
</svg>
